<svg width="512" height="512" viewBox="0 0 512 512" fill="none" xmlns="http://www.w3.org/2000/svg">
<path d="M164.961 331.004H164.984C165.004 331.004 165.023 331 165.043 331H437C443.695 331 449.582 326.559 451.422 320.121L511.422 110.121C512.715 105.594 511.809 100.727 508.977 96.9689C506.141 93.2111 501.707 91.0001 497 91.0001H130.367L119.645 42.7462C118.117 35.8829 112.031 31.0001 105 31.0001H15C6.71484 31.0001 0 37.715 0 46.0001C0 54.2853 6.71484 61.0001 15 61.0001H92.9688C94.8672 69.5509 144.281 291.918 147.125 304.711C131.184 311.641 120 327.535 120 346C120 370.813 140.188 391 165 391H437C445.285 391 452 384.285 452 376C452 367.715 445.285 361 437 361H165C156.73 361 150 354.27 150 346C150 337.742 156.707 331.024 164.961 331.004V331.004ZM477.113 121L425.684 301H177.031L137.031 121H477.113Z" fill="white"/>
<path d="M150 436C150 460.812 170.187 481 195 481C219.812 481 240 460.812 240 436C240 411.187 219.812 391 195 391C170.187 391 150 411.187 150 436ZM195 421C203.269 421 210 427.73 210 436C210 444.269 203.269 451 195 451C186.73 451 180 444.269 180 436C180 427.73 186.73 421 195 421Z" fill="white"/>
<path d="M362 436C362 460.812 382.187 481 407 481C431.812 481 452 460.812 452 436C452 411.187 431.812 391 407 391C382.187 391 362 411.187 362 436ZM407 421C415.269 421 422 427.73 422 436C422 444.269 415.269 451 407 451C398.73 451 392 444.269 392 436C392 427.73 398.73 421 407 421Z" fill="white"/>
<g clip-path="url(#clip0)">
<path d="M357.8 204.8H308.2V155.2C308.2 151.778 305.422 149 302 149C298.578 149 295.8 151.778 295.8 155.2V204.8H246.2C242.778 204.8 240 207.578 240 211C240 214.422 242.778 217.2 246.2 217.2H295.8V266.8C295.8 270.222 298.578 273 302 273C305.422 273 308.2 270.222 308.2 266.8V217.2H357.8C361.222 217.2 364 214.422 364 211C364 207.578 361.222 204.8 357.8 204.8V204.8Z" fill="white"/>
</g>
<defs>
<clipPath id="clip0">
<rect width="124" height="124" fill="white" transform="translate(240 149)"/>
</clipPath>
</defs>
</svg>
