<svg width="512" height="512" viewBox="0 0 512 512" fill="none" xmlns="http://www.w3.org/2000/svg">
<path d="M256 0C114.509 0 0 114.497 0 256C0 397.491 114.497 512 256 512C397.491 512 512 397.503 512 256C512 114.509 397.503 0 256 0ZM393.508 286.292C393.508 295.717 385.867 303.359 376.441 303.359H274.754V351.278C274.754 365.563 258.298 373.401 247.189 364.734L125.06 269.456C116.299 262.621 116.318 249.363 125.06 242.544L247.189 147.267C258.361 138.554 274.754 146.515 274.754 160.723V208.642H376.442C385.867 208.642 393.509 216.283 393.509 225.709V286.292H393.508Z" fill="#929292"/>
</svg>
