<svg width="208" height="208" viewBox="0 0 208 208" fill="none" xmlns="http://www.w3.org/2000/svg">
<circle cx="104" cy="104" r="104" fill="#5466C8"/>
<path d="M84.4655 89.7531L81.6909 86.4359L76.6562 90.646L83.7878 99.1721L95.6473 88.5439L91.2681 83.6562L84.4655 89.7531Z" fill="white"/>
<path d="M95.6875 88.0312H121.057V94.5938H95.6875V88.0312Z" fill="white"/>
<path d="M84.4655 110.096L81.6909 106.779L76.6562 110.989L83.7878 119.515L95.6473 108.887L91.2681 104L84.4655 110.096Z" fill="white"/>
<path d="M95.6875 107.281H121.057V113.844H95.6875V107.281Z" fill="white"/>
<path d="M84.4655 128.252L81.6909 124.935L76.6562 129.145L83.7878 137.671L95.6473 127.043L91.2681 122.156L84.4655 128.252Z" fill="white"/>
<path d="M95.6875 126.531H121.057V133.094H95.6875V126.531Z" fill="white"/>
<path d="M126.213 48H119.651V54.6821H111.186V48H104.624V54.6821H96.1575V48H89.595V54.6821H81.1304V48H74.5679V54.6821H60.0312V160H140.75V54.6821H126.213V48ZM134.188 61.2446V153.438H66.5938V61.2446H74.5679V67.9259H81.1304V61.2446H89.595V67.9259H96.1575V61.2446H104.623V67.9259H111.185V61.2446H119.651V67.9259H126.213V61.2446H134.188Z" fill="white"/>
</svg>
