<svg width="158" height="158" viewBox="0 0 158 158" fill="none" xmlns="http://www.w3.org/2000/svg">
<rect x="29" y="31" width="100" height="96" fill="white"/>
<path d="M79 0C35.4377 0 0 35.4377 0 79C0 122.562 35.4377 158 79 158C122.562 158 158 122.562 158 79C158 35.4377 122.562 0 79 0ZM113.562 85.5829H85.5829V113.562C85.5829 117.197 82.6344 120.145 79 120.145C75.3656 120.145 72.4171 117.197 72.4171 113.562V85.5829H44.4375C40.8031 85.5829 37.8546 82.6344 37.8546 79C37.8546 75.3656 40.8031 72.4171 44.4375 72.4171H72.4171V44.4375C72.4171 40.8031 75.3656 37.8546 79 37.8546C82.6344 37.8546 85.5829 40.8031 85.5829 44.4375V72.4171H113.562C117.197 72.4171 120.145 75.3656 120.145 79C120.145 82.6344 117.197 85.5829 113.562 85.5829Z" fill="#219653"/>
</svg>
