<svg width="512" height="512" viewBox="0 0 512 512" fill="none" xmlns="http://www.w3.org/2000/svg">
<path d="M402.351 381.058H199.031L187.225 333.834H453.812L512 101.085H129.038L108.882 20.46H0V53.86H82.804L165.012 382.687C140.959 388.658 123.074 410.424 123.074 436.298C123.074 466.759 147.855 491.54 178.315 491.54C208.774 491.54 233.556 466.759 233.556 436.298C233.556 428.543 231.943 421.16 229.045 414.457H351.622C348.725 421.16 347.111 428.543 347.111 436.298C347.111 466.759 371.892 491.54 402.352 491.54C432.811 491.54 457.593 466.759 457.593 436.298C457.592 405.84 432.811 381.058 402.351 381.058ZM287.029 300.434H249.949L241.665 234.159H287.03V300.434H287.029ZM411.912 134.484H469.222L452.654 200.759H403.628L411.912 134.484ZM399.453 234.16H444.303L427.735 300.435H391.169L399.453 234.16ZM320.428 134.484H378.252L369.968 200.759H320.429V134.484H320.428ZM320.428 234.159H365.793L357.509 300.434H320.429V234.159H320.428ZM287.029 134.484V200.759H237.49L229.206 134.484H287.029ZM137.388 134.484H195.546L203.83 200.759H153.957L137.388 134.484ZM162.307 234.159H208.006L216.29 300.434H178.876L162.307 234.159ZM178.315 458.141C166.272 458.141 156.474 448.343 156.474 436.299C156.474 424.256 166.272 414.458 178.315 414.458C190.358 414.458 200.156 424.256 200.156 436.299C200.156 448.343 190.358 458.141 178.315 458.141ZM402.351 458.141C390.308 458.141 380.51 448.343 380.51 436.299C380.51 424.256 390.308 414.458 402.351 414.458C414.394 414.458 424.192 424.256 424.192 436.299C424.192 448.343 414.394 458.141 402.351 458.141Z" fill="#FF0000"/>
</svg>
