<svg width="100" height="100" viewBox="0 0 100 100" fill="none" xmlns="http://www.w3.org/2000/svg">
<circle cx="50" cy="50" r="50" fill="#E92424"/>
<path d="M63.793 66.2735H41.1577L39.8434 61.2612H69.522L76 36.5575H33.3656L31.1216 28H19V31.545H28.2184L37.3705 66.4464C34.6927 67.0802 32.7016 69.3904 32.7016 72.1367C32.7016 75.3698 35.4604 78 38.8515 78C42.2424 78 45.0014 75.3698 45.0014 72.1367C45.0014 71.3136 44.8218 70.5299 44.4992 69.8185H58.1454C57.8229 70.5299 57.6432 71.3136 57.6432 72.1367C57.6432 75.3698 60.402 78 63.7931 78C67.184 78 69.943 75.3698 69.943 72.1367C69.9429 68.9039 67.184 66.2735 63.793 66.2735ZM50.9544 57.7162H46.8264L45.9041 50.6818H50.9545V57.7162H50.9544ZM64.8574 40.1024H71.2376L69.3931 47.1368H63.9351L64.8574 40.1024ZM63.4704 50.6819H68.4634L66.6189 57.7163H62.5481L63.4704 50.6819ZM54.6726 40.1024H61.1101L60.1878 47.1368H54.6728V40.1024H54.6726ZM54.6726 50.6818H59.723L58.8008 57.7162H54.6728V50.6818H54.6726ZM50.9544 40.1024V47.1368H45.4393L44.5171 40.1024H50.9544ZM34.2951 40.1024H40.7698L41.692 47.1368H36.1397L34.2951 40.1024ZM37.0693 50.6818H42.1569L43.0792 57.7162H38.9139L37.0693 50.6818ZM38.8515 74.4551C37.5108 74.4551 36.42 73.4151 36.42 72.1368C36.42 70.8585 37.5108 69.8186 38.8515 69.8186C40.1922 69.8186 41.283 70.8585 41.283 72.1368C41.283 73.4151 40.1922 74.4551 38.8515 74.4551ZM63.793 74.4551C62.4523 74.4551 61.3615 73.4151 61.3615 72.1368C61.3615 70.8585 62.4523 69.8186 63.793 69.8186C65.1337 69.8186 66.2245 70.8585 66.2245 72.1368C66.2245 73.4151 65.1337 74.4551 63.793 74.4551Z" fill="white"/>
</svg>
