<svg width="100" height="100" viewBox="0 0 100 100" fill="none" xmlns="http://www.w3.org/2000/svg">
<circle cx="50" cy="50" r="50" fill="#F86A2D"/>
<path d="M69.2885 27.5385H58.9231V25.6538C58.9231 22.5313 56.3918 20 53.2692 20H45.7308C42.6082 20 40.0769 22.5313 40.0769 25.6538V27.5385H29.7115C27.1095 27.5385 25 29.6479 25 32.25V36.0192C25 37.0601 25.8437 37.9038 26.8846 37.9038H72.1154C73.1563 37.9038 74 37.0601 74 36.0192V32.25C74 29.6479 71.8905 27.5385 69.2885 27.5385ZM43.8462 25.6538C43.8462 24.615 44.6919 23.7692 45.7308 23.7692H53.2692C54.3081 23.7692 55.1538 24.615 55.1538 25.6538V27.5385H43.8462V25.6538Z" fill="#FFFBFB"/>
<path d="M28.5765 41.6731C28.2402 41.6731 27.9723 41.9541 27.9883 42.29L29.5431 74.9224C29.6868 77.9425 32.1674 80.3077 35.1899 80.3077H63.8101C66.8326 80.3077 69.3132 77.9425 69.4569 74.9224L71.0117 42.29C71.0277 41.9541 70.7598 41.6731 70.4235 41.6731H28.5765ZM57.0385 46.3846C57.0385 45.3434 57.8818 44.5 58.9231 44.5C59.9643 44.5 60.8077 45.3434 60.8077 46.3846V70.8846C60.8077 71.9259 59.9643 72.7692 58.9231 72.7692C57.8818 72.7692 57.0385 71.9259 57.0385 70.8846V46.3846ZM47.6154 46.3846C47.6154 45.3434 48.4587 44.5 49.5 44.5C50.5412 44.5 51.3846 45.3434 51.3846 46.3846V70.8846C51.3846 71.9259 50.5412 72.7692 49.5 72.7692C48.4587 72.7692 47.6154 71.9259 47.6154 70.8846V46.3846ZM38.1923 46.3846C38.1923 45.3434 39.0357 44.5 40.0769 44.5C41.1182 44.5 41.9615 45.3434 41.9615 46.3846V70.8846C41.9615 71.9259 41.1182 72.7692 40.0769 72.7692C39.0357 72.7692 38.1923 71.9259 38.1923 70.8846V46.3846Z" fill="#FFFBFB"/>
</svg>
