<svg width="30" height="30" viewBox="0 0 30 30" fill="none" xmlns="http://www.w3.org/2000/svg">
<path d="M1.05265 18.506V5.74209C1.05265 5.03282 1.6276 4.45782 2.33691 4.45782H15.0943C15.8035 4.45782 16.3785 5.03282 16.3785 5.74209V18.5061C16.3785 18.7425 16.1869 18.9341 15.9504 18.9341H1.48074C1.24426 18.9341 1.05265 18.7425 1.05265 18.506ZM11.3546 22.8786C11.3546 24.3497 10.162 25.5423 8.69098 25.5423C7.21995 25.5423 6.02735 24.3497 6.02735 22.8786C6.02735 21.4075 7.21995 20.215 8.69098 20.215C10.162 20.215 11.3546 21.4075 11.3546 22.8786ZM10.0227 22.8786C10.0227 22.1431 9.42647 21.5468 8.69093 21.5468C7.95539 21.5468 7.35907 22.1431 7.35907 22.8786C7.35907 23.6142 7.95539 24.2105 8.69093 24.2105C9.42647 24.2105 10.0227 23.6142 10.0227 22.8786ZM6.39681 20.215H0.428088C0.191667 20.215 0 20.4066 0 20.6431V21.9418C0 22.1783 0.191667 22.3699 0.428088 22.3699H5.2123C5.33721 21.5129 5.7698 20.7558 6.39681 20.215ZM25.2911 22.8786C25.2911 24.3497 24.0985 25.5423 22.6275 25.5423C21.1564 25.5423 19.9638 24.3497 19.9638 22.8786C19.9638 21.4075 21.1564 20.215 22.6275 20.215C24.0985 20.215 25.2911 21.4075 25.2911 22.8786ZM23.9593 22.8786C23.9593 22.1431 23.363 21.5468 22.6275 21.5468C21.8919 21.5468 21.2956 22.1431 21.2956 22.8786C21.2956 23.6142 21.8919 24.2105 22.6275 24.2105C23.363 24.2105 23.9593 23.6142 23.9593 22.8786ZM30 20.6431V21.9418C30 22.1783 29.8083 22.3699 29.5719 22.3699H26.106C25.8581 20.6698 24.395 19.3588 22.6275 19.3588C20.8598 19.3588 19.3966 20.6698 19.1487 22.3699H12.1697C12.0447 21.5129 11.6122 20.7558 10.9851 20.215H17.6025V7.97032C17.6025 7.49748 17.9858 7.11415 18.4587 7.11415H22.5001C23.638 7.11415 24.7016 7.67939 25.3383 8.62248L27.9437 12.4813C28.3259 13.0474 28.5301 13.7147 28.5301 14.3977V20.215H29.5719C29.8083 20.215 30 20.4066 30 20.6431ZM25.6573 12.5802L23.5739 9.61973C23.4937 9.50581 23.3631 9.43802 23.2238 9.43802H19.974C19.7376 9.43802 19.5459 9.62968 19.5459 9.86611V12.8265C19.5459 13.063 19.7376 13.2546 19.974 13.2546H25.3073C25.654 13.2546 25.8569 12.8638 25.6573 12.5802Z" fill="black"/>
</svg>
