<svg width="100" height="100" viewBox="0 0 100 100" fill="none" xmlns="http://www.w3.org/2000/svg">
<circle cx="50" cy="50" r="50" fill="#E9A624"/>
<path d="M69.8291 48.099C69.826 48.097 69.8251 48.0959 69.824 48.094L52.438 30.926C51.091 29.595 48.9059 29.602 47.5729 30.9359L30.172 48.0981C29.416 48.853 29 49.858 29 50.926C29 51.9941 29.416 52.9991 30.172 53.755C31.7309 55.3161 34.269 55.314 35.821 53.7621L46 43.7911V76C46 78.206 47.7939 80 50 80C52.2061 80 54 78.206 54 76V43.789L64.1719 53.756C65.7319 55.316 68.2689 55.316 69.8289 53.756C71.3889 52.196 71.388 49.6581 69.8291 48.099Z" fill="white"/>
<path d="M67 20H33C30.794 20 29 21.794 29 24C29 26.206 30.794 27.9999 33 27.9999H66.9999C69.206 27.9999 70.9999 26.2059 70.9999 24C71 21.794 69.206 20 67 20Z" fill="white"/>
</svg>
