<svg width="481" height="481" viewBox="0 0 481 481" fill="none" xmlns="http://www.w3.org/2000/svg">
<g clip-path="url(#clip0)">
<path d="M470.955 388.077C454.067 358.461 423.115 352.917 417.075 352.109C416.723 352.061 416.371 352.037 416.011 352.037H331.323L327.971 348.685C332.283 347.181 336.411 345.213 340.235 342.829C344.163 340.381 347.499 337.629 350.451 334.773L381.811 343.733L386.203 328.349L361.115 321.181C364.427 315.525 366.507 310.205 367.667 306.349C367.891 305.597 368.011 304.821 368.011 304.037V287.597L387.163 279.389L380.867 264.685L368.011 270.197V264.037C368.011 262.589 367.619 261.165 366.867 259.917L342.867 219.917C341.603 217.805 339.427 216.397 336.987 216.093C334.579 215.829 332.107 216.629 330.355 218.381L308.699 240.037H304.011V139.349L315.323 128.037H325.587L347.571 142.693C351.251 145.149 356.211 144.149 358.667 140.477L374.667 116.477C376.459 113.789 376.459 110.293 374.667 107.605L342.667 59.6051C341.179 57.3731 338.683 56.0371 336.011 56.0371H312.011C308.979 56.0371 306.211 57.7491 304.851 60.4611L291.067 88.0371H204.955L191.163 60.4611C189.811 57.7491 187.043 56.0371 184.011 56.0371H152.011C149.427 56.0371 147.003 57.2851 145.507 59.3891L105.507 115.389C103.235 118.565 103.595 122.925 106.355 125.693L122.355 141.693C125.051 144.397 129.275 144.797 132.451 142.693L154.435 128.037H172.699L176.011 131.349V218.309C154.891 225.981 97.2267 252.301 72.5307 317.197C57.9627 355.485 61.1947 391.229 66.5627 414.645L48.0107 403.509V376.037C48.0107 366.885 42.9227 358.661 34.7467 354.573C26.5547 350.477 16.9227 351.357 9.60274 356.845C3.59474 361.357 0.0107422 368.533 0.0107422 376.037V432.037C0.0107422 434.797 1.43474 437.357 3.77074 438.821L67.7707 478.821C69.0427 479.613 70.5067 480.037 72.0107 480.037H232.011H264.011H432.011C433.251 480.037 434.483 479.749 435.587 479.197L467.587 463.197C469.035 462.477 470.219 461.333 471.003 459.925C471.835 458.437 490.971 423.141 470.955 388.077ZM256.019 399.989L208.643 399.837L208.595 415.837L256.011 415.989V464.037H240.011C240.011 446.389 225.659 432.037 208.011 432.037H192.011C192.011 392.341 159.715 360.037 120.011 360.037H112.011V376.037H120.011C150.883 376.037 176.011 401.157 176.011 432.037V440.037C176.011 444.453 179.587 448.037 184.011 448.037H208.011C216.835 448.037 224.011 455.213 224.011 464.037H74.3067L16.0107 427.605V376.037C16.0107 373.533 17.2027 371.141 19.2027 369.637C21.6827 367.781 24.8107 367.493 27.5867 368.885C30.3547 370.269 32.0107 372.941 32.0107 376.037V408.037C32.0107 410.845 33.4907 413.453 35.8907 414.893L75.8907 438.893C78.7947 440.637 82.4907 440.365 85.1067 438.197C87.7147 436.029 88.6827 432.461 87.5147 429.277C81.5307 412.989 69.5467 370.013 87.4827 322.877C88.6587 319.781 89.9947 316.869 91.3307 313.965L91.3467 313.973C118.283 255.437 175.235 235.141 186.387 231.669C189.739 230.637 192.011 227.541 192.011 224.037V128.037C192.011 125.917 191.171 123.877 189.667 122.381L181.667 114.381C180.171 112.877 178.139 112.037 176.011 112.037H152.011C150.435 112.037 148.883 112.509 147.571 113.381L129.027 125.741L122.459 119.173L156.131 72.0371H179.067L192.859 99.6131C194.211 102.325 196.979 104.037 200.011 104.037H296.011C299.043 104.037 301.811 102.325 303.171 99.6131L316.955 72.0371H331.731L358.395 112.037L349.795 124.941L332.451 113.381C331.139 112.509 329.587 112.037 328.011 112.037H312.011C309.883 112.037 307.851 112.877 306.355 114.381L290.355 130.381C288.851 131.877 288.011 133.917 288.011 136.037V240.037H267.323L245.667 218.381C243.923 216.629 241.467 215.805 239.035 216.093C236.587 216.397 234.419 217.805 233.155 219.917L209.155 259.917C208.403 261.165 208.011 262.589 208.011 264.037V270.197L195.163 264.693L188.867 279.397L208.011 287.597V300.213V304.037C208.011 304.821 208.131 305.597 208.355 306.349C209.827 311.245 212.731 318.461 217.891 325.789L189.203 336.549L194.827 351.533L229.659 338.469C231.547 339.989 233.587 341.453 235.795 342.829C241.931 346.653 248.811 349.389 256.019 350.909V399.989V399.989ZM458.027 450.085L430.123 464.037H357.771L352.011 446.741V426.461L362.251 411.101C363.523 409.181 365.667 408.037 367.963 408.037C371.419 408.037 373.195 410.317 373.795 411.293C374.403 412.277 375.643 414.885 374.099 417.965L368.851 428.461C367.315 431.541 367.915 435.261 370.355 437.693L378.355 445.693C379.851 447.197 381.883 448.037 384.011 448.037H424.011V432.037H387.323L385.747 430.461L388.419 425.125C391.987 417.989 391.603 409.669 387.411 402.885C383.219 396.101 375.939 392.037 367.963 392.037C360.307 392.037 353.195 395.845 348.939 402.213L337.355 419.597C336.483 420.917 336.011 422.461 336.011 424.037V448.037C336.011 448.893 336.155 449.749 336.427 450.565L340.915 464.037H312.011V408.037H296.011V464.037H272.011V408.013V344.037C272.011 339.909 268.867 336.453 264.755 336.069C258.899 335.525 253.403 333.957 248.323 331.461L258.827 327.525L253.203 312.541L233.523 319.925C228.331 313.797 225.475 307.317 224.011 302.813V300.205V294.445L244.859 303.381L251.155 288.677L224.011 277.053V266.253L241.595 236.941L258.355 253.693C259.851 255.197 261.883 256.037 264.011 256.037H296.011H312.011C314.139 256.037 316.171 255.197 317.667 253.693L334.427 236.941L352.011 266.253V277.053L324.859 288.685L331.155 303.389L352.011 294.453V302.813C350.811 306.501 348.659 311.525 345.083 316.597L330.211 312.349L325.819 327.733L331.563 329.373C325.459 333.125 318.643 335.389 311.275 336.077C308.187 336.365 305.539 338.413 304.491 341.325C303.435 344.245 304.163 347.501 306.355 349.693L322.355 365.693C323.851 367.197 325.883 368.037 328.011 368.037H415.443C420.019 368.733 444.203 373.445 457.067 396.005C470.235 419.085 461.235 443.029 458.027 450.085Z" fill="white"/>
<path d="M472.619 105.565C458.211 65.5249 411.443 4.46086 341.603 0.364862C294.131 -2.49114 257.995 34.5169 240.707 52.2769C240.371 52.6209 240.035 52.9649 239.715 53.2929C239.267 52.8369 238.811 52.3569 238.323 51.8529C221.299 34.1729 185.603 -2.69114 138.427 0.172862C68.5869 4.26886 21.8189 65.3249 7.41091 105.373C-11.8291 158.893 6.80291 227.277 58.5389 292.989L71.1229 283.093C22.8669 221.813 5.13091 159.005 22.4749 110.781C35.4349 74.7329 77.2669 19.7809 139.363 16.1409C179.443 13.8929 211.435 46.9969 226.803 62.9569C229.739 65.9969 232.115 68.4529 233.875 70.0129C234.843 70.8769 236.019 71.4929 237.275 71.8049L238.099 72.0049C240.651 72.6369 243.371 71.9729 245.339 70.2129C247.043 68.7009 249.339 66.3489 252.179 63.4289C267.803 47.3809 300.419 14.0609 340.667 16.3329C402.771 19.9809 444.595 74.9329 457.555 110.981C477.275 165.797 451.627 238.925 388.955 306.597L400.691 317.469C467.507 245.325 494.395 166.109 472.619 105.565Z" fill="white"/>
<path d="M224.011 136.037H208.011V152.037H224.011V136.037Z" fill="white"/>
<path d="M272.011 136.037H256.011V152.037H272.011V136.037Z" fill="white"/>
<path d="M256.011 168.037H224.011V184.037H256.011V168.037Z" fill="white"/>
<path d="M272.011 272.037H256.011V288.037H272.011V272.037Z" fill="white"/>
<path d="M320.011 272.037H304.011V288.037H320.011V272.037Z" fill="white"/>
<path d="M296.011 296.037H280.011V312.037H296.011V296.037Z" fill="white"/>
</g>
<defs>
<clipPath id="clip0">
<rect width="480.052" height="480.052" fill="white"/>
</clipPath>
</defs>
</svg>
